<?xml version="1.0" standalone="no"?>
<!DOCTYPE svg PUBLIC "-//W3C//DTD SVG 20010904//EN"
 "http://www.w3.org/TR/2001/REC-SVG-20010904/DTD/svg10.dtd">
<svg version="1.0" xmlns="http://www.w3.org/2000/svg"
 width="500.000000pt" height="300.000000pt" viewBox="0 0 500.000000 300.000000"
 preserveAspectRatio="xMidYMid meet">
<metadata>
Created by potrace 1.16, written by Peter Selinger 2001-2019
</metadata>
<g transform="translate(0.000000,300.000000) scale(0.100000,-0.100000)"
fill="#000000" stroke="none">
<path d="M2760 2780 c-710 -66 -1340 -312 -1340 -524 0 -33 19 -82 88 -222
l89 -179 22 -175 c30 -236 98 -718 120 -860 11 -63 19 -128 19 -145 -1 -83 46
-309 82 -393 79 -184 412 -284 847 -254 92 6 179 14 193 16 14 2 48 7 75 11
235 31 493 105 652 187 54 28 108 56 120 62 13 6 23 14 23 19 0 4 6 7 14 7 25
0 134 114 165 172 35 66 46 158 31 248 -5 30 -10 78 -12 105 -2 28 -8 55 -14
60 -6 6 -27 123 -48 260 -58 389 -237 1382 -258 1438 -26 69 -130 122 -296
153 -94 18 -440 26 -572 14z m510 -64 c115 -21 151 -31 203 -51 65 -27 86 -44
96 -83 13 -43 -16 -89 -85 -138 -44 -31 -220 -119 -299 -149 -38 -14 -83 -32
-100 -40 -65 -29 -429 -107 -632 -135 -188 -25 -461 -33 -623 -18 -233 23
-380 93 -351 169 31 82 224 200 457 280 134 45 377 105 514 125 19 3 42 7 50
9 8 2 44 7 80 11 36 3 68 8 71 10 3 2 46 6 95 10 49 3 91 8 92 9 7 6 396 -3
432 -9z m338 -298 c1 -14 18 -115 27 -158 3 -14 8 -38 10 -55 3 -16 8 -37 10
-45 2 -8 6 -33 10 -55 5 -39 40 -226 50 -275 3 -14 10 -47 15 -75 5 -27 12
-61 15 -75 6 -30 31 -180 50 -305 8 -49 16 -103 19 -120 5 -29 13 -86 22 -155
7 -50 16 -112 20 -135 6 -31 18 -147 18 -180 1 -16 7 -36 14 -43 13 -14 17
-102 5 -102 -5 0 -8 -13 -9 -28 0 -15 -9 -45 -20 -67 -20 -43 -112 -145 -130
-145 -6 0 -17 -6 -23 -14 -10 -12 -156 -87 -226 -116 -75 -32 -99 -40 -170
-60 -44 -12 -89 -24 -100 -26 -11 -2 -33 -7 -50 -11 -16 -4 -32 -7 -35 -8 -3
-1 -25 -5 -50 -10 -25 -5 -47 -9 -50 -10 -17 -4 -109 -18 -130 -21 -14 -1 -54
-6 -90 -11 -127 -16 -448 -9 -552 11 -16 4 -39 8 -53 10 -14 3 -65 19 -112 37
-67 26 -96 43 -134 81 -27 27 -49 58 -49 68 0 11 -8 24 -19 29 -25 14 -35 68
-16 88 17 17 20 27 5 18 -5 -3 -10 -1 -10 4 0 17 -2 24 -10 47 -5 11 -11 38
-14 60 -4 21 -11 66 -17 99 -6 33 -12 69 -14 80 -1 11 -5 34 -8 50 -4 17 -9
44 -12 60 -2 17 -7 41 -10 55 -2 14 -7 45 -10 70 -2 25 -11 81 -19 125 -8 44
-18 105 -21 135 -6 57 -33 266 -40 310 -2 14 -7 52 -10 85 -4 33 -8 67 -10 75
-2 8 -7 44 -10 80 -8 82 -10 89 -54 180 -53 109 -55 113 -31 100 11 -6 20 -9
20 -6 0 2 17 0 38 -6 121 -34 440 -46 672 -27 352 30 739 118 965 219 153 68
282 141 300 170 9 14 31 12 33 -2z"/>
<path d="M2455 1775 c-49 -7 -101 -16 -115 -19 -14 -4 -36 -8 -50 -11 -85 -16
-190 -49 -264 -84 -132 -64 -185 -125 -181 -211 3 -68 4 -70 23 -70 10 0 31
-14 48 -31 131 -137 575 -230 957 -200 254 20 431 61 569 133 76 39 148 105
148 135 0 16 12 17 29 1 10 -11 11 -7 6 17 -22 99 -40 130 -102 173 -80 56
-138 80 -296 121 -114 30 -139 35 -262 51 -100 13 -404 10 -510 -5z m-50 -129
c0 -16 -14 -22 -85 -38 -149 -32 -274 -82 -314 -127 -23 -25 -44 -27 -53 -6
-18 48 156 136 350 180 79 17 102 15 102 -9z"/>
</g>
</svg>
