<svg xmlns="http://www.w3.org/2000/svg" width="16.363" height="18.617" viewBox="0 0 16.363 18.617">
  <g id="user" transform="translate(-31)">
    <g id="Group_7" data-name="Group 7" transform="translate(34.273)">
      <g id="Group_6" data-name="Group 6">
        <path id="Path_3" data-name="Path 3" d="M125.909,0a4.909,4.909,0,1,0,4.909,4.909A4.914,4.914,0,0,0,125.909,0Zm0,8.727a3.818,3.818,0,1,1,3.818-3.818A3.822,3.822,0,0,1,125.909,8.727Z" transform="translate(-121)" fill="#0faca3"/>
      </g>
    </g>
    <g id="Group_9" data-name="Group 9" transform="translate(31 10.945)">
      <g id="Group_8" data-name="Group 8">
        <path id="Path_4" data-name="Path 4" d="M40.7,301H37.66A7.884,7.884,0,0,0,31,304.653v4.02H47.363v-4.02A7.886,7.886,0,0,0,40.7,301Zm5.57,6.582H32.091v-2.595a6.789,6.789,0,0,1,5.57-2.9H40.7a6.789,6.789,0,0,1,5.57,2.9Z" transform="translate(-31 -301)" fill="#0faca3"/>
      </g>
    </g>
  </g>
</svg>
